<svg version="1.1" viewBox="0.0 0.0 600.0 371.0" fill="none" stroke="none" stroke-linecap="square" stroke-miterlimit="10" width="600" height="371" xmlns:xlink="http://www.w3.org/1999/xlink" xmlns="http://www.w3.org/2000/svg"><path fill="#ffffff" d="M0 0L600.0 0L600.0 371.0L0 371.0L0 0Z" fill-rule="nonzero"/><path stroke="#333333" stroke-width="1.0" stroke-linecap="butt" d="M77.5 300.5L581.5 300.5" fill-rule="nonzero"/><path stroke="#cccccc" stroke-width="1.0" stroke-linecap="butt" d="M77.5 240.5L581.5 240.5" fill-rule="nonzero"/><path stroke="#cccccc" stroke-width="1.0" stroke-linecap="butt" d="M77.5 181.5L581.5 181.5" fill-rule="nonzero"/><path stroke="#cccccc" stroke-width="1.0" stroke-linecap="butt" d="M77.5 121.5L581.5 121.5" fill-rule="nonzero"/><path stroke="#cccccc" stroke-width="1.0" stroke-linecap="butt" d="M77.5 61.5L581.5 61.5" fill-rule="nonzero"/><clipPath id="id_0"><path d="M77.55 61.916668L581.45 61.916668L581.45 300.45L77.55 300.45L77.55 61.916668Z" clip-rule="nonzero"/></clipPath><path stroke="#000000" stroke-width="2.0" stroke-linecap="butt" stroke-opacity="0.0" clip-path="url(#id_0)" d="M138.0 300.0L99.0 300.0L99.0 282.0C99.0 280.89542 99.89543 280.0 101.0 280.0L136.0 280.0C137.10457 280.0 138.0 280.89542 138.0 282.0Z" fill-rule="nonzero"/><path fill="#5891ad" clip-path="url(#id_0)" d="M138.0 300.0L99.0 300.0L99.0 282.0C99.0 280.89542 99.89543 280.0 101.0 280.0L136.0 280.0C137.10457 280.0 138.0 280.89542 138.0 282.0Z" fill-rule="nonzero"/><path stroke="#000000" stroke-width="2.0" stroke-linecap="butt" stroke-opacity="0.0" clip-path="url(#id_0)" d="M199.0 300.0L160.0 300.0L160.0 258.0C160.0 256.89542 160.89543 256.0 162.0 256.0L197.0 256.0C198.10457 256.0 199.0 256.89542 199.0 258.0Z" fill-rule="nonzero"/><path fill="#5891ad" clip-path="url(#id_0)" d="M199.0 300.0L160.0 300.0L160.0 258.0C160.0 256.89542 160.89543 256.0 162.0 256.0L197.0 256.0C198.10457 256.0 199.0 256.89542 199.0 258.0Z" fill-rule="nonzero"/><path stroke="#000000" stroke-width="2.0" stroke-linecap="butt" stroke-opacity="0.0" clip-path="url(#id_0)" d="M259.0 300.0L220.0 300.0L220.0 258.0C220.0 256.89542 220.89543 256.0 222.0 256.0L257.0 256.0C258.10458 256.0 259.0 256.89542 259.0 258.0Z" fill-rule="nonzero"/><path fill="#5891ad" clip-path="url(#id_0)" d="M259.0 300.0L220.0 300.0L220.0 258.0C220.0 256.89542 220.89543 256.0 222.0 256.0L257.0 256.0C258.10458 256.0 259.0 256.89542 259.0 258.0Z" fill-rule="nonzero"/><path stroke="#000000" stroke-width="2.0" stroke-linecap="butt" stroke-opacity="0.0" clip-path="url(#id_0)" d="M319.0 300.0L280.0 300.0L280.0 258.0C280.0 256.89542 280.89542 256.0 282.0 256.0L317.0 256.0C318.10458 256.0 319.0 256.89542 319.0 258.0Z" fill-rule="nonzero"/><path fill="#5891ad" clip-path="url(#id_0)" d="M319.0 300.0L280.0 300.0L280.0 258.0C280.0 256.89542 280.89542 256.0 282.0 256.0L317.0 256.0C318.10458 256.0 319.0 256.89542 319.0 258.0Z" fill-rule="nonzero"/><path stroke="#000000" stroke-width="2.0" stroke-linecap="butt" stroke-opacity="0.0" clip-path="url(#id_0)" d="M380.0 300.0L341.0 300.0L341.0 252.0C341.0 250.89543 341.89542 250.0 343.0 250.0L378.0 250.0C379.10458 250.0 380.0 250.89543 380.0 252.0Z" fill-rule="nonzero"/><path fill="#5891ad" clip-path="url(#id_0)" d="M380.0 300.0L341.0 300.0L341.0 252.0C341.0 250.89543 341.89542 250.0 343.0 250.0L378.0 250.0C379.10458 250.0 380.0 250.89543 380.0 252.0Z" fill-rule="nonzero"/><path stroke="#000000" stroke-width="2.0" stroke-linecap="butt" stroke-opacity="0.0" clip-path="url(#id_0)" d="M440.0 300.0L401.0 300.0L401.0 219.0C401.0 217.89543 401.89542 217.0 403.0 217.0L438.0 217.0C439.10458 217.0 440.0 217.89543 440.0 219.0Z" fill-rule="nonzero"/><path fill="#5891ad" clip-path="url(#id_0)" d="M440.0 300.0L401.0 300.0L401.0 219.0C401.0 217.89543 401.89542 217.0 403.0 217.0L438.0 217.0C439.10458 217.0 440.0 217.89543 440.0 219.0Z" fill-rule="nonzero"/><path stroke="#000000" stroke-width="2.0" stroke-linecap="butt" stroke-opacity="0.0" clip-path="url(#id_0)" d="M500.0 300.0L461.0 300.0L461.0 204.0C461.0 202.89543 461.89542 202.0 463.0 202.0L498.0 202.0C499.10458 202.0 500.0 202.89543 500.0 204.0Z" fill-rule="nonzero"/><path fill="#5891ad" clip-path="url(#id_0)" d="M500.0 300.0L461.0 300.0L461.0 204.0C461.0 202.89543 461.89542 202.0 463.0 202.0L498.0 202.0C499.10458 202.0 500.0 202.89543 500.0 204.0Z" fill-rule="nonzero"/><path stroke="#000000" stroke-width="2.0" stroke-linecap="butt" stroke-opacity="0.0" clip-path="url(#id_0)" d="M561.0 300.0L522.0 300.0L522.0 88.0C522.0 86.89543 522.89545 86.0 524.0 86.0L559.0 86.0C560.10455 86.0 561.0 86.89543 561.0 88.0Z" fill-rule="nonzero"/><path fill="#5891ad" clip-path="url(#id_0)" d="M561.0 300.0L522.0 300.0L522.0 88.0C522.0 86.89543 522.89545 86.0 524.0 86.0L559.0 86.0C560.10455 86.0 561.0 86.89543 561.0 88.0Z" fill-rule="nonzero"/><path stroke="#5891ad" stroke-width="3.0" stroke-linejoin="round" stroke-linecap="round" d="M120.71875 286.5923L117.1875 294.51416L116.046875 294.51416L119.5625 286.87354L114.953125 286.87354L114.953125 285.9829L120.71875 285.9829L120.71875 286.5923Z" fill-rule="nonzero"/><path fill="#ffffff" d="M120.71875 286.5923L117.1875 294.51416L116.046875 294.51416L119.5625 286.87354L114.953125 286.87354L114.953125 285.9829L120.71875 285.9829L120.71875 286.5923Z" fill-rule="nonzero"/><path stroke="#5891ad" stroke-width="3.0" stroke-linejoin="round" stroke-linecap="round" d="M176.26562 272.525L175.1875 272.525L175.1875 265.30624L173.0 266.10312L173.0 265.11874L176.10938 263.94687L176.26562 263.94687L176.26562 272.525ZM180.20312 268.24374L180.64062 263.99374L185.01562 263.99374L185.01562 264.99374L181.5625 264.99374L181.29688 267.32187Q181.9375 266.94687 182.73438 266.94687Q183.89062 266.94687 184.57812 267.72812Q185.26562 268.49374 185.26562 269.80624Q185.26562 271.11874 184.54688 271.88437Q183.84375 272.65 182.5625 272.65Q181.4375 272.65 180.71875 272.025Q180.0 271.38437 179.90625 270.275L180.92188 270.275Q181.03125 271.00937 181.45312 271.38437Q181.875 271.75937 182.5625 271.75937Q183.3125 271.75937 183.75 271.24374Q184.1875 270.72812 184.1875 269.82187Q184.1875 268.9625 183.71875 268.44687Q183.25 267.93124 182.46875 267.93124Q181.76562 267.93124 181.35938 268.22812L181.07812 268.4625L180.20312 268.24374Z" fill-rule="nonzero"/><path fill="#ffffff" d="M176.26562 272.525L175.1875 272.525L175.1875 265.30624L173.0 266.10312L173.0 265.11874L176.10938 263.94687L176.26562 263.94687L176.26562 272.525ZM180.20312 268.24374L180.64062 263.99374L185.01562 263.99374L185.01562 264.99374L181.5625 264.99374L181.29688 267.32187Q181.9375 266.94687 182.73438 266.94687Q183.89062 266.94687 184.57812 267.72812Q185.26562 268.49374 185.26562 269.80624Q185.26562 271.11874 184.54688 271.88437Q183.84375 272.65 182.5625 272.65Q181.4375 272.65 180.71875 272.025Q180.0 271.38437 179.90625 270.275L180.92188 270.275Q181.03125 271.00937 181.45312 271.38437Q181.875 271.75937 182.5625 271.75937Q183.3125 271.75937 183.75 271.24374Q184.1875 270.72812 184.1875 269.82187Q184.1875 268.9625 183.71875 268.44687Q183.25 267.93124 182.46875 267.93124Q181.76562 267.93124 181.35938 268.22812L181.07812 268.4625L180.20312 268.24374Z" fill-rule="nonzero"/><path stroke="#5891ad" stroke-width="3.0" stroke-linejoin="round" stroke-linecap="round" d="M236.26562 272.525L235.1875 272.525L235.1875 265.30624L233.0 266.10312L233.0 265.11874L236.10938 263.94687L236.26562 263.94687L236.26562 272.525ZM240.20312 268.24374L240.64062 263.99374L245.01562 263.99374L245.01562 264.99374L241.5625 264.99374L241.29688 267.32187Q241.9375 266.94687 242.73438 266.94687Q243.89062 266.94687 244.57812 267.72812Q245.26562 268.49374 245.26562 269.80624Q245.26562 271.11874 244.54688 271.88437Q243.84375 272.65 242.5625 272.65Q241.4375 272.65 240.71875 272.025Q240.0 271.38437 239.90625 270.275L240.92188 270.275Q241.03125 271.00937 241.45312 271.38437Q241.875 271.75937 242.5625 271.75937Q243.3125 271.75937 243.75 271.24374Q244.1875 270.72812 244.1875 269.82187Q244.1875 268.9625 243.71875 268.44687Q243.25 267.93124 242.46875 267.93124Q241.76562 267.93124 241.35938 268.22812L241.07812 268.4625L240.20312 268.24374Z" fill-rule="nonzero"/><path fill="#ffffff" d="M236.26562 272.525L235.1875 272.525L235.1875 265.30624L233.0 266.10312L233.0 265.11874L236.10938 263.94687L236.26562 263.94687L236.26562 272.525ZM240.20312 268.24374L240.64062 263.99374L245.01562 263.99374L245.01562 264.99374L241.5625 264.99374L241.29688 267.32187Q241.9375 266.94687 242.73438 266.94687Q243.89062 266.94687 244.57812 267.72812Q245.26562 268.49374 245.26562 269.80624Q245.26562 271.11874 244.54688 271.88437Q243.84375 272.65 242.5625 272.65Q241.4375 272.65 240.71875 272.025Q240.0 271.38437 239.90625 270.275L240.92188 270.275Q241.03125 271.00937 241.45312 271.38437Q241.875 271.75937 242.5625 271.75937Q243.3125 271.75937 243.75 271.24374Q244.1875 270.72812 244.1875 269.82187Q244.1875 268.9625 243.71875 268.44687Q243.25 267.93124 242.46875 267.93124Q241.76562 267.93124 241.35938 268.22812L241.07812 268.4625L240.20312 268.24374Z" fill-rule="nonzero"/><path stroke="#5891ad" stroke-width="3.0" stroke-linejoin="round" stroke-linecap="round" d="M296.26562 272.525L295.1875 272.525L295.1875 265.30624L293.0 266.10312L293.0 265.11874L296.10938 263.94687L296.26562 263.94687L296.26562 272.525ZM300.20312 268.24374L300.64062 263.99374L305.01562 263.99374L305.01562 264.99374L301.5625 264.99374L301.29688 267.32187Q301.9375 266.94687 302.73438 266.94687Q303.89062 266.94687 304.57812 267.72812Q305.26562 268.49374 305.26562 269.80624Q305.26562 271.11874 304.54688 271.88437Q303.84375 272.65 302.5625 272.65Q301.4375 272.65 300.71875 272.025Q300.0 271.38437 299.90625 270.275L300.92188 270.275Q301.03125 271.00937 301.45312 271.38437Q301.875 271.75937 302.5625 271.75937Q303.3125 271.75937 303.75 271.24374Q304.1875 270.72812 304.1875 269.82187Q304.1875 268.9625 303.71875 268.44687Q303.25 267.93124 302.46875 267.93124Q301.76562 267.93124 301.35938 268.22812L301.07812 268.4625L300.20312 268.24374Z" fill-rule="nonzero"/><path fill="#ffffff" d="M296.26562 272.525L295.1875 272.525L295.1875 265.30624L293.0 266.10312L293.0 265.11874L296.10938 263.94687L296.26562 263.94687L296.26562 272.525ZM300.20312 268.24374L300.64062 263.99374L305.01562 263.99374L305.01562 264.99374L301.5625 264.99374L301.29688 267.32187Q301.9375 266.94687 302.73438 266.94687Q303.89062 266.94687 304.57812 267.72812Q305.26562 268.49374 305.26562 269.80624Q305.26562 271.11874 304.54688 271.88437Q303.84375 272.65 302.5625 272.65Q301.4375 272.65 300.71875 272.025Q300.0 271.38437 299.90625 270.275L300.92188 270.275Q301.03125 271.00937 301.45312 271.38437Q301.875 271.75937 302.5625 271.75937Q303.3125 271.75937 303.75 271.24374Q304.1875 270.72812 304.1875 269.82187Q304.1875 268.9625 303.71875 268.44687Q303.25 267.93124 302.46875 267.93124Q301.76562 267.93124 301.35938 268.22812L301.07812 268.4625L300.20312 268.24374Z" fill-rule="nonzero"/><path stroke="#5891ad" stroke-width="3.0" stroke-linejoin="round" stroke-linecap="round" d="M357.26562 266.56168L356.1875 266.56168L356.1875 259.34293L354.0 260.1398L354.0 259.15543L357.10938 257.98355L357.26562 257.98355L357.26562 266.56168ZM366.21875 258.6398L362.6875 266.56168L361.54688 266.56168L365.0625 258.92105L360.45312 258.92105L360.45312 258.03043L366.21875 258.03043L366.21875 258.6398Z" fill-rule="nonzero"/><path fill="#ffffff" d="M357.26562 266.56168L356.1875 266.56168L356.1875 259.34293L354.0 260.1398L354.0 259.15543L357.10938 257.98355L357.26562 257.98355L357.26562 266.56168ZM366.21875 258.6398L362.6875 266.56168L361.54688 266.56168L365.0625 258.92105L360.45312 258.92105L360.45312 258.03043L366.21875 258.03043L366.21875 258.6398Z" fill-rule="nonzero"/><path stroke="#5891ad" stroke-width="3.0" stroke-linejoin="round" stroke-linecap="round" d="M419.29688 233.76334L413.70312 233.76334L413.70312 232.98209L416.65625 229.70084Q417.3125 228.95084 417.5625 228.49771Q417.8125 228.02896 417.8125 227.52896Q417.8125 226.85709 417.40625 226.43521Q417.01562 225.99771 416.32812 225.99771Q415.53125 225.99771 415.07812 226.46646Q414.625 226.91959 414.625 227.74771L413.54688 227.74771Q413.54688 226.56021 414.29688 225.84146Q415.0625 225.10709 416.32812 225.10709Q417.53125 225.10709 418.21875 225.73209Q418.90625 226.35709 418.90625 227.40396Q418.90625 228.65396 417.29688 230.40396L415.01562 232.87271L419.29688 232.87271L419.29688 233.76334ZM425.89062 227.45084Q425.89062 228.09146 425.54688 228.59146Q425.20312 229.09146 424.64062 229.37271Q425.29688 229.65396 425.6875 230.21646Q426.07812 230.76334 426.07812 231.46646Q426.07812 232.56021 425.32812 233.23209Q424.59375 233.88834 423.375 233.88834Q422.14062 233.88834 421.39062 233.23209Q420.65625 232.56021 420.65625 231.46646Q420.65625 230.76334 421.03125 230.21646Q421.40625 229.65396 422.07812 229.37271Q421.51562 229.09146 421.1875 228.59146Q420.85938 228.09146 420.85938 227.45084Q420.85938 226.37271 421.54688 225.74771Q422.23438 225.10709 423.375 225.10709Q424.5 225.10709 425.1875 225.74771Q425.89062 226.37271 425.89062 227.45084ZM425.0 231.43521Q425.0 230.71646 424.54688 230.27896Q424.09375 229.82584 423.35938 229.82584Q422.625 229.82584 422.17188 230.27896Q421.73438 230.71646 421.73438 231.45084Q421.73438 232.16959 422.17188 232.59146Q422.60938 232.99771 423.375 232.99771Q424.125 232.99771 424.5625 232.57584Q425.0 232.15396 425.0 231.43521ZM423.375 225.99771Q422.73438 225.99771 422.32812 226.40396Q421.9375 226.79459 421.9375 227.48209Q421.9375 228.12271 422.32812 228.52896Q422.71875 228.93521 423.35938 228.93521Q424.01562 228.93521 424.40625 228.52896Q424.79688 228.12271 424.79688 227.48209Q424.79688 226.82584 424.39062 226.41959Q423.98438 225.99771 423.375 225.99771Z" fill-rule="nonzero"/><path fill="#ffffff" d="M419.29688 233.76334L413.70312 233.76334L413.70312 232.98209L416.65625 229.70084Q417.3125 228.95084 417.5625 228.49771Q417.8125 228.02896 417.8125 227.52896Q417.8125 226.85709 417.40625 226.43521Q417.01562 225.99771 416.32812 225.99771Q415.53125 225.99771 415.07812 226.46646Q414.625 226.91959 414.625 227.74771L413.54688 227.74771Q413.54688 226.56021 414.29688 225.84146Q415.0625 225.10709 416.32812 225.10709Q417.53125 225.10709 418.21875 225.73209Q418.90625 226.35709 418.90625 227.40396Q418.90625 228.65396 417.29688 230.40396L415.01562 232.87271L419.29688 232.87271L419.29688 233.76334ZM425.89062 227.45084Q425.89062 228.09146 425.54688 228.59146Q425.20312 229.09146 424.64062 229.37271Q425.29688 229.65396 425.6875 230.21646Q426.07812 230.76334 426.07812 231.46646Q426.07812 232.56021 425.32812 233.23209Q424.59375 233.88834 423.375 233.88834Q422.14062 233.88834 421.39062 233.23209Q420.65625 232.56021 420.65625 231.46646Q420.65625 230.76334 421.03125 230.21646Q421.40625 229.65396 422.07812 229.37271Q421.51562 229.09146 421.1875 228.59146Q420.85938 228.09146 420.85938 227.45084Q420.85938 226.37271 421.54688 225.74771Q422.23438 225.10709 423.375 225.10709Q424.5 225.10709 425.1875 225.74771Q425.89062 226.37271 425.89062 227.45084ZM425.0 231.43521Q425.0 230.71646 424.54688 230.27896Q424.09375 229.82584 423.35938 229.82584Q422.625 229.82584 422.17188 230.27896Q421.73438 230.71646 421.73438 231.45084Q421.73438 232.16959 422.17188 232.59146Q422.60938 232.99771 423.375 232.99771Q424.125 232.99771 424.5625 232.57584Q425.0 232.15396 425.0 231.43521ZM423.375 225.99771Q422.73438 225.99771 422.32812 226.40396Q421.9375 226.79459 421.9375 227.48209Q421.9375 228.12271 422.32812 228.52896Q422.71875 228.93521 423.35938 228.93521Q424.01562 228.93521 424.40625 228.52896Q424.79688 228.12271 424.79688 227.48209Q424.79688 226.82584 424.39062 226.41959Q423.98438 225.99771 423.375 225.99771Z" fill-rule="nonzero"/><path stroke="#5891ad" stroke-width="3.0" stroke-linejoin="round" stroke-linecap="round" d="M475.28125 214.05812L476.09375 214.05812Q476.875 214.0425 477.3125 213.65187Q477.75 213.26125 477.75 212.58937Q477.75 211.08937 476.25 211.08937Q475.54688 211.08937 475.125 211.49562Q474.71875 211.90187 474.71875 212.55812L473.625 212.55812Q473.625 211.5425 474.35938 210.87062Q475.10938 210.19875 476.25 210.19875Q477.45312 210.19875 478.14062 210.83937Q478.82812 211.48 478.82812 212.62062Q478.82812 213.18312 478.46875 213.69875Q478.10938 214.21437 477.48438 214.48Q478.1875 214.69875 478.5625 215.21437Q478.95312 215.73 478.95312 216.48Q478.95312 217.62062 478.20312 218.30812Q477.45312 218.98 476.25 218.98Q475.0625 218.98 474.29688 218.32375Q473.54688 217.6675 473.54688 216.605L474.64062 216.605Q474.64062 217.27687 475.07812 217.68312Q475.51562 218.08937 476.26562 218.08937Q477.04688 218.08937 477.45312 217.68312Q477.875 217.26125 477.875 216.49562Q477.875 215.76125 477.42188 215.37062Q476.96875 214.96437 476.09375 214.94875L475.28125 214.94875L475.28125 214.05812ZM482.28125 214.05812L483.09375 214.05812Q483.875 214.0425 484.3125 213.65187Q484.75 213.26125 484.75 212.58937Q484.75 211.08937 483.25 211.08937Q482.54688 211.08937 482.125 211.49562Q481.71875 211.90187 481.71875 212.55812L480.625 212.55812Q480.625 211.5425 481.35938 210.87062Q482.10938 210.19875 483.25 210.19875Q484.45312 210.19875 485.14062 210.83937Q485.82812 211.48 485.82812 212.62062Q485.82812 213.18312 485.46875 213.69875Q485.10938 214.21437 484.48438 214.48Q485.1875 214.69875 485.5625 215.21437Q485.95312 215.73 485.95312 216.48Q485.95312 217.62062 485.20312 218.30812Q484.45312 218.98 483.25 218.98Q482.0625 218.98 481.29688 218.32375Q480.54688 217.6675 480.54688 216.605L481.64062 216.605Q481.64062 217.27687 482.07812 217.68312Q482.51562 218.08937 483.26562 218.08937Q484.04688 218.08937 484.45312 217.68312Q484.875 217.26125 484.875 216.49562Q484.875 215.76125 484.42188 215.37062Q483.96875 214.96437 483.09375 214.94875L482.28125 214.94875L482.28125 214.05812Z" fill-rule="nonzero"/><path fill="#ffffff" d="M475.28125 214.05812L476.09375 214.05812Q476.875 214.0425 477.3125 213.65187Q477.75 213.26125 477.75 212.58937Q477.75 211.08937 476.25 211.08937Q475.54688 211.08937 475.125 211.49562Q474.71875 211.90187 474.71875 212.55812L473.625 212.55812Q473.625 211.5425 474.35938 210.87062Q475.10938 210.19875 476.25 210.19875Q477.45312 210.19875 478.14062 210.83937Q478.82812 211.48 478.82812 212.62062Q478.82812 213.18312 478.46875 213.69875Q478.10938 214.21437 477.48438 214.48Q478.1875 214.69875 478.5625 215.21437Q478.95312 215.73 478.95312 216.48Q478.95312 217.62062 478.20312 218.30812Q477.45312 218.98 476.25 218.98Q475.0625 218.98 474.29688 218.32375Q473.54688 217.6675 473.54688 216.605L474.64062 216.605Q474.64062 217.27687 475.07812 217.68312Q475.51562 218.08937 476.26562 218.08937Q477.04688 218.08937 477.45312 217.68312Q477.875 217.26125 477.875 216.49562Q477.875 215.76125 477.42188 215.37062Q476.96875 214.96437 476.09375 214.94875L475.28125 214.94875L475.28125 214.05812ZM482.28125 214.05812L483.09375 214.05812Q483.875 214.0425 484.3125 213.65187Q484.75 213.26125 484.75 212.58937Q484.75 211.08937 483.25 211.08937Q482.54688 211.08937 482.125 211.49562Q481.71875 211.90187 481.71875 212.55812L480.625 212.55812Q480.625 211.5425 481.35938 210.87062Q482.10938 210.19875 483.25 210.19875Q484.45312 210.19875 485.14062 210.83937Q485.82812 211.48 485.82812 212.62062Q485.82812 213.18312 485.46875 213.69875Q485.10938 214.21437 484.48438 214.48Q485.1875 214.69875 485.5625 215.21437Q485.95312 215.73 485.95312 216.48Q485.95312 217.62062 485.20312 218.30812Q484.45312 218.98 483.25 218.98Q482.0625 218.98 481.29688 218.32375Q480.54688 217.6675 480.54688 216.605L481.64062 216.605Q481.64062 217.27687 482.07812 217.68312Q482.51562 218.08937 483.26562 218.08937Q484.04688 218.08937 484.45312 217.68312Q484.875 217.26125 484.875 216.49562Q484.875 215.76125 484.42188 215.37062Q483.96875 214.96437 483.09375 214.94875L482.28125 214.94875L482.28125 214.05812Z" fill-rule="nonzero"/><path stroke="#5891ad" stroke-width="3.0" stroke-linejoin="round" stroke-linecap="round" d="M540.21875 94.648125L536.6875 102.57L535.5469 102.57L539.0625 94.929375L534.4531 94.929375L534.4531 94.03875L540.21875 94.03875L540.21875 94.648125ZM547.2969 102.57L541.7031 102.57L541.7031 101.78875L544.65625 98.5075Q545.3125 97.7575 545.5625 97.304375Q545.8125 96.835625 545.8125 96.335625Q545.8125 95.66375 545.40625 95.241875Q545.0156 94.804375 544.3281 94.804375Q543.53125 94.804375 543.0781 95.273125Q542.625 95.72625 542.625 96.554375L541.5469 96.554375Q541.5469 95.366875 542.2969 94.648125Q543.0625 93.91375 544.3281 93.91375Q545.53125 93.91375 546.21875 94.53875Q546.90625 95.16375 546.90625 96.210625Q546.90625 97.460625 545.2969 99.210625L543.0156 101.679375L547.2969 101.679375L547.2969 102.57Z" fill-rule="nonzero"/><path fill="#ffffff" d="M540.21875 94.648125L536.6875 102.57L535.5469 102.57L539.0625 94.929375L534.4531 94.929375L534.4531 94.03875L540.21875 94.03875L540.21875 94.648125ZM547.2969 102.57L541.7031 102.57L541.7031 101.78875L544.65625 98.5075Q545.3125 97.7575 545.5625 97.304375Q545.8125 96.835625 545.8125 96.335625Q545.8125 95.66375 545.40625 95.241875Q545.0156 94.804375 544.3281 94.804375Q543.53125 94.804375 543.0781 95.273125Q542.625 95.72625 542.625 96.554375L541.5469 96.554375Q541.5469 95.366875 542.2969 94.648125Q543.0625 93.91375 544.3281 93.91375Q545.53125 93.91375 546.21875 94.53875Q546.90625 95.16375 546.90625 96.210625Q546.90625 97.460625 545.2969 99.210625L543.0156 101.679375L547.2969 101.679375L547.2969 102.57Z" fill-rule="nonzero"/><path fill="#000000" d="M302.375 349.45L302.375 340.85626L303.51562 340.85626L303.51562 348.4344L307.75 348.4344L307.75 349.45L302.375 349.45ZM313.35938 348.6844Q312.76562 349.1844 312.21875 349.3875Q311.6875 349.59064 311.0625 349.59064Q310.03125 349.59064 309.48438 349.09064Q308.9375 348.59064 308.9375 347.8094Q308.9375 347.35626 309.14062 346.98126Q309.34375 346.59064 309.6875 346.3719Q310.03125 346.1375 310.45312 346.02814Q310.75 345.9344 311.39062 345.85626Q312.65625 345.71564 313.26562 345.4969Q313.26562 345.27814 313.26562 345.23126Q313.26562 344.575 312.96875 344.3094Q312.5625 343.96564 311.76562 343.96564Q311.03125 343.96564 310.67188 344.23126Q310.3125 344.48126 310.14062 345.1375L309.10938 344.9969Q309.25 344.34064 309.57812 343.9344Q309.90625 343.52814 310.51562 343.3094Q311.125 343.09064 311.92188 343.09064Q312.71875 343.09064 313.21875 343.27814Q313.71875 343.46564 313.95312 343.7469Q314.1875 344.02814 314.28125 344.46564Q314.32812 344.73126 314.32812 345.4344L314.32812 346.84064Q314.32812 348.3094 314.39062 348.7Q314.46875 349.09064 314.67188 349.45L313.5625 349.45Q313.40625 349.1219 313.35938 348.6844ZM313.26562 346.325Q312.6875 346.5594 311.54688 346.73126Q310.89062 346.825 310.625 346.95Q310.35938 347.0594 310.20312 347.27814Q310.0625 347.4969 310.0625 347.77814Q310.0625 348.2 310.375 348.48126Q310.70312 348.7625 311.3125 348.7625Q311.92188 348.7625 312.39062 348.4969Q312.875 348.23126 313.09375 347.7625Q313.26562 347.40314 313.26562 346.71564L313.26562 346.325ZM316.29688 349.45L316.29688 343.23126L317.23438 343.23126L317.23438 344.10626Q317.92188 343.09064 319.21875 343.09064Q319.78125 343.09064 320.25 343.29376Q320.73438 343.4969 320.96875 343.825Q321.20312 344.15314 321.29688 344.59064Q321.34375 344.8875 321.34375 345.6219L321.34375 349.45L320.29688 349.45L320.29688 345.66876Q320.29688 345.0125 320.17188 344.7Q320.04688 344.3875 319.73438 344.2Q319.42188 343.9969 319.0 343.9969Q318.32812 343.9969 317.82812 344.4344Q317.34375 344.85626 317.34375 346.04376L317.34375 349.45L316.29688 349.45ZM323.09375 349.96564L324.125 350.1219Q324.1875 350.59064 324.48438 350.8094Q324.875 351.10626 325.54688 351.10626Q326.28125 351.10626 326.67188 350.8094Q327.07812 350.5125 327.21875 349.9969Q327.3125 349.66876 327.29688 348.6375Q326.60938 349.45 325.57812 349.45Q324.29688 349.45 323.59375 348.52814Q322.89062 347.59064 322.89062 346.3094Q322.89062 345.41876 323.20312 344.66876Q323.53125 343.90314 324.14062 343.4969Q324.75 343.09064 325.57812 343.09064Q326.6875 343.09064 327.40625 343.98126L327.40625 343.23126L328.375 343.23126L328.375 348.60626Q328.375 350.0594 328.07812 350.66876Q327.78125 351.27814 327.14062 351.6219Q326.5 351.98126 325.5625 351.98126Q324.45312 351.98126 323.76562 351.48126Q323.07812 350.98126 323.09375 349.96564ZM323.96875 346.23126Q323.96875 347.45 324.45312 348.0125Q324.9375 348.575 325.67188 348.575Q326.40625 348.575 326.89062 348.0125Q327.39062 347.45 327.39062 346.2625Q327.39062 345.1219 326.875 344.54376Q326.375 343.96564 325.65625 343.96564Q324.95312 343.96564 324.45312 344.54376Q323.96875 345.10626 323.96875 346.23126ZM334.375 349.45L334.375 348.52814Q333.64062 349.59064 332.39062 349.59064Q331.84375 349.59064 331.35938 349.3875Q330.89062 349.16876 330.65625 348.85626Q330.42188 348.52814 330.32812 348.0594Q330.26562 347.7625 330.26562 347.075L330.26562 343.23126L331.32812 343.23126L331.32812 346.6844Q331.32812 347.4969 331.39062 347.79376Q331.48438 348.2 331.79688 348.45Q332.125 348.6844 332.60938 348.6844Q333.07812 348.6844 333.48438 348.45Q333.90625 348.2 334.07812 347.77814Q334.26562 347.35626 334.26562 346.5594L334.26562 343.23126L335.3125 343.23126L335.3125 349.45L334.375 349.45ZM341.35938 348.6844Q340.76562 349.1844 340.21875 349.3875Q339.6875 349.59064 339.0625 349.59064Q338.03125 349.59064 337.48438 349.09064Q336.9375 348.59064 336.9375 347.8094Q336.9375 347.35626 337.14062 346.98126Q337.34375 346.59064 337.6875 346.3719Q338.03125 346.1375 338.45312 346.02814Q338.75 345.9344 339.39062 345.85626Q340.65625 345.71564 341.26562 345.4969Q341.26562 345.27814 341.26562 345.23126Q341.26562 344.575 340.96875 344.3094Q340.5625 343.96564 339.76562 343.96564Q339.03125 343.96564 338.67188 344.23126Q338.3125 344.48126 338.14062 345.1375L337.10938 344.9969Q337.25 344.34064 337.57812 343.9344Q337.90625 343.52814 338.51562 343.3094Q339.125 343.09064 339.92188 343.09064Q340.71875 343.09064 341.21875 343.27814Q341.71875 343.46564 341.95312 343.7469Q342.1875 344.02814 342.28125 344.46564Q342.32812 344.73126 342.32812 345.4344L342.32812 346.84064Q342.32812 348.3094 342.39062 348.7Q342.46875 349.09064 342.67188 349.45L341.5625 349.45Q341.40625 349.1219 341.35938 348.6844ZM341.26562 346.325Q340.6875 346.5594 339.54688 346.73126Q338.89062 346.825 338.625 346.95Q338.35938 347.0594 338.20312 347.27814Q338.0625 347.4969 338.0625 347.77814Q338.0625 348.2 338.375 348.48126Q338.70312 348.7625 339.3125 348.7625Q339.92188 348.7625 340.39062 348.4969Q340.875 348.23126 341.09375 347.7625Q341.26562 347.40314 341.26562 346.71564L341.26562 346.325ZM344.09375 349.96564L345.125 350.1219Q345.1875 350.59064 345.48438 350.8094Q345.875 351.10626 346.54688 351.10626Q347.28125 351.10626 347.67188 350.8094Q348.07812 350.5125 348.21875 349.9969Q348.3125 349.66876 348.29688 348.6375Q347.60938 349.45 346.57812 349.45Q345.29688 349.45 344.59375 348.52814Q343.89062 347.59064 343.89062 346.3094Q343.89062 345.41876 344.20312 344.66876Q344.53125 343.90314 345.14062 343.4969Q345.75 343.09064 346.57812 343.09064Q347.6875 343.09064 348.40625 343.98126L348.40625 343.23126L349.375 343.23126L349.375 348.60626Q349.375 350.0594 349.07812 350.66876Q348.78125 351.27814 348.14062 351.6219Q347.5 351.98126 346.5625 351.98126Q345.45312 351.98126 344.76562 351.48126Q344.07812 350.98126 344.09375 349.96564ZM344.96875 346.23126Q344.96875 347.45 345.45312 348.0125Q345.9375 348.575 346.67188 348.575Q347.40625 348.575 347.89062 348.0125Q348.39062 347.45 348.39062 346.2625Q348.39062 345.1219 347.875 344.54376Q347.375 343.96564 346.65625 343.96564Q345.95312 343.96564 345.45312 344.54376Q344.96875 345.10626 344.96875 346.23126ZM355.54688 347.45L356.64062 347.575Q356.39062 348.52814 355.6875 349.0594Q354.98438 349.59064 353.90625 349.59064Q352.54688 349.59064 351.73438 348.7469Q350.9375 347.90314 350.9375 346.3875Q350.9375 344.825 351.75 343.96564Q352.5625 343.09064 353.84375 343.09064Q355.09375 343.09064 355.875 343.9344Q356.67188 344.77814 356.67188 346.325Q356.67188 346.41876 356.67188 346.60626L352.03125 346.60626Q352.09375 347.6375 352.60938 348.1844Q353.125 348.71564 353.90625 348.71564Q354.48438 348.71564 354.89062 348.41876Q355.3125 348.10626 355.54688 347.45ZM352.09375 345.7469L355.5625 345.7469Q355.5 344.95 355.17188 344.5594Q354.65625 343.95 353.85938 343.95Q353.125 343.95 352.625 344.4344Q352.14062 344.91876 352.09375 345.7469Z" fill-rule="nonzero"/><path fill="#000000" d="M26.534388 197.12083L26.831263 195.99583Q28.221888 196.35521 28.956263 197.27708Q29.690638 198.19896 29.690638 199.54271Q29.690638 200.93333 29.128138 201.80833Q28.565638 202.68333 27.503138 203.13646Q26.425013 203.58958 25.190638 203.58958Q23.846888 203.58958 22.846888 203.07396Q21.846888 202.55833 21.331263 201.62083Q20.815638 200.66771 20.815638 199.52708Q20.815638 198.24583 21.471888 197.37083Q22.128138 196.48021 23.315638 196.13646L23.581263 197.26146Q22.643763 197.55833 22.221888 198.13646Q21.784388 198.69896 21.784388 199.55833Q21.784388 200.54271 22.268763 201.21458Q22.737513 201.87083 23.534388 202.15208Q24.331263 202.41771 25.190638 202.41771Q26.284388 202.41771 27.096888 202.10521Q27.909388 201.77708 28.315638 201.10521Q28.721888 200.43333 28.721888 199.63646Q28.721888 198.68333 28.175013 198.02708Q27.628138 197.35521 26.534388 197.12083ZM26.440638 194.77708Q24.706263 194.77708 23.878138 193.82396Q23.190638 193.02708 23.190638 191.87083Q23.190638 190.58958 24.034388 189.77708Q24.862513 188.94896 26.346888 188.94896Q27.550013 188.94896 28.237513 189.30833Q28.925013 189.66771 29.315638 190.37083Q29.690638 191.05833 29.690638 191.87083Q29.690638 193.16771 28.862513 193.98021Q28.018763 194.77708 26.440638 194.77708ZM26.440638 193.69896Q27.628138 193.69896 28.221888 193.18333Q28.815638 192.65208 28.815638 191.87083Q28.815638 191.07396 28.221888 190.55833Q27.628138 190.04271 26.409388 190.04271Q25.253138 190.04271 24.659388 190.57396Q24.065638 191.08958 24.065638 191.87083Q24.065638 192.65208 24.659388 193.18333Q25.237513 193.69896 26.440638 193.69896ZM29.550013 183.30833L28.628138 183.30833Q29.690638 184.04271 29.690638 185.29271Q29.690638 185.83958 29.487513 186.32396Q29.268763 186.79271 28.956263 187.02708Q28.628138 187.26146 28.159388 187.35521Q27.862513 187.41771 27.175013 187.41771L23.331263 187.41771L23.331263 186.35521L26.784388 186.35521Q27.596888 186.35521 27.893763 186.29271Q28.300013 186.19896 28.550013 185.88646Q28.784388 185.55833 28.784388 185.07396Q28.784388 184.60521 28.550013 184.19896Q28.300013 183.77708 27.878138 183.60521Q27.456263 183.41771 26.659388 183.41771L23.331263 183.41771L23.331263 182.37083L29.550013 182.37083L29.550013 183.30833ZM29.550013 180.38646L23.331263 180.38646L23.331263 179.44896L24.206263 179.44896Q23.190638 178.76146 23.190638 177.46458Q23.190638 176.90208 23.393763 176.43333Q23.596888 175.94896 23.925013 175.71458Q24.253138 175.48021 24.690638 175.38646Q24.987513 175.33958 25.721888 175.33958L29.550013 175.33958L29.550013 176.38646L25.768763 176.38646Q25.112513 176.38646 24.800013 176.51146Q24.487513 176.63646 24.300013 176.94896Q24.096888 177.26146 24.096888 177.68333Q24.096888 178.35521 24.534388 178.85521Q24.956263 179.33958 26.143763 179.33958L29.550013 179.33958L29.550013 180.38646ZM28.612513 171.08958L29.534388 170.93333Q29.628138 171.38646 29.628138 171.73021Q29.628138 172.30833 29.456263 172.62083Q29.268763 172.93333 28.971888 173.07396Q28.675013 173.19896 27.721888 173.19896L24.143763 173.19896L24.143763 173.96458L23.331263 173.96458L23.331263 173.19896L21.784388 173.19896L21.159388 172.15208L23.331263 172.15208L23.331263 171.08958L24.143763 171.08958L24.143763 172.15208L27.784388 172.15208Q28.237513 172.15208 28.362513 172.10521Q28.487513 172.04271 28.565638 171.91771Q28.643763 171.79271 28.643763 171.55833Q28.643763 171.37083 28.612513 171.08958Z" fill-rule="nonzero"/><path fill="#000000" d="M65.05 300.21564Q65.05 298.6844 65.3625 297.7625Q65.675 296.825 66.28438 296.325Q66.90938 295.825 67.84688 295.825Q68.53438 295.825 69.05 296.10626Q69.58125 296.3875 69.925 296.91876Q70.26875 297.4344 70.45625 298.1844Q70.64375 298.9344 70.64375 300.21564Q70.64375 301.73126 70.33125 302.65314Q70.03438 303.575 69.40938 304.09064Q68.8 304.59064 67.84688 304.59064Q66.6125 304.59064 65.89375 303.7Q65.05 302.6375 65.05 300.21564ZM66.12813 300.21564Q66.12813 302.325 66.62813 303.02814Q67.12813 303.73126 67.84688 303.73126Q68.58125 303.73126 69.06563 303.02814Q69.56563 302.325 69.56563 300.21564Q69.56563 298.09064 69.06563 297.40314Q68.58125 296.7 67.83125 296.7Q67.1125 296.7 66.675 297.3094Q66.12813 298.09064 66.12813 300.21564Z" fill-rule="nonzero"/><path fill="#000000" d="M63.596874 243.80104L63.596874 244.81667L57.909374 244.81667Q57.909374 244.44167 58.034374 244.08229Q58.253124 243.50417 58.721874 242.94167Q59.20625 242.37917 60.1125 241.64479Q61.51875 240.48854 62.003124 239.81667Q62.503124 239.14479 62.503124 238.55104Q62.503124 237.92604 62.05 237.50417Q61.596874 237.06667 60.878124 237.06667Q60.1125 237.06667 59.659374 237.51979Q59.20625 237.97292 59.190624 238.78542L58.1125 238.67604Q58.221874 237.45729 58.940624 236.83229Q59.675 236.19167 60.909374 236.19167Q62.14375 236.19167 62.8625 236.87917Q63.58125 237.56667 63.58125 238.58229Q63.58125 239.09792 63.3625 239.59792Q63.159374 240.08229 62.659374 240.64479Q62.175 241.19167 61.05 242.14479Q60.096874 242.94167 59.815624 243.23854Q59.55 243.51979 59.378124 243.80104L63.596874 243.80104ZM65.05 240.58229Q65.05 239.05104 65.3625 238.12917Q65.675 237.19167 66.28438 236.69167Q66.90938 236.19167 67.84688 236.19167Q68.53438 236.19167 69.05 236.47292Q69.58125 236.75417 69.925 237.28542Q70.26875 237.80104 70.45625 238.55104Q70.64375 239.30104 70.64375 240.58229Q70.64375 242.09792 70.33125 243.01979Q70.03438 243.94167 69.40938 244.45729Q68.8 244.95729 67.84688 244.95729Q66.6125 244.95729 65.89375 244.06667Q65.05 243.00417 65.05 240.58229ZM66.12813 240.58229Q66.12813 242.69167 66.62813 243.39479Q67.12813 244.09792 67.84688 244.09792Q68.58125 244.09792 69.06563 243.39479Q69.56563 242.69167 69.56563 240.58229Q69.56563 238.45729 69.06563 237.76979Q68.58125 237.06667 67.83125 237.06667Q67.1125 237.06667 66.675 237.67604Q66.12813 238.45729 66.12813 240.58229Z" fill-rule="nonzero"/><path fill="#000000" d="M61.425 185.18333L61.425 183.12083L57.70625 183.12083L57.70625 182.15208L61.628124 176.58958L62.4875 176.58958L62.4875 182.15208L63.64375 182.15208L63.64375 183.12083L62.4875 183.12083L62.4875 185.18333L61.425 185.18333ZM61.425 182.15208L61.425 178.29271L58.7375 182.15208L61.425 182.15208ZM65.05 180.94896Q65.05 179.41771 65.3625 178.49583Q65.675 177.55833 66.28438 177.05833Q66.90938 176.55833 67.84688 176.55833Q68.53438 176.55833 69.05 176.83958Q69.58125 177.12083 69.925 177.65208Q70.26875 178.16771 70.45625 178.91771Q70.64375 179.66771 70.64375 180.94896Q70.64375 182.46458 70.33125 183.38646Q70.03438 184.30833 69.40938 184.82396Q68.8 185.32396 67.84688 185.32396Q66.6125 185.32396 65.89375 184.43333Q65.05 183.37083 65.05 180.94896ZM66.12813 180.94896Q66.12813 183.05833 66.62813 183.76146Q67.12813 184.46458 67.84688 184.46458Q68.58125 184.46458 69.06563 183.76146Q69.56563 183.05833 69.56563 180.94896Q69.56563 178.82396 69.06563 178.13646Q68.58125 177.43333 67.83125 177.43333Q67.1125 177.43333 66.675 178.04271Q66.12813 178.82396 66.12813 180.94896Z" fill-rule="nonzero"/><path fill="#000000" d="M63.51875 119.06563L62.471874 119.14375Q62.33125 118.51875 62.08125 118.2375Q61.64375 117.78438 61.01875 117.78438Q60.51875 117.78438 60.128124 118.06563Q59.64375 118.44063 59.346874 119.14375Q59.065624 119.83125 59.05 121.1125Q59.425 120.53438 59.971874 120.25313Q60.534374 119.97188 61.14375 119.97188Q62.190624 119.97188 62.925 120.75313Q63.675 121.53438 63.675 122.75313Q63.675 123.56563 63.315624 124.26875Q62.971874 124.95625 62.3625 125.33125Q61.753124 125.69063 60.9875 125.69063Q59.659374 125.69063 58.83125 124.72188Q58.003124 123.75313 58.003124 121.53438Q58.003124 119.03438 58.925 117.90938Q59.721874 116.925 61.08125 116.925Q62.096874 116.925 62.7375 117.50313Q63.39375 118.06563 63.51875 119.06563ZM59.221874 122.76875Q59.221874 123.31563 59.440624 123.81563Q59.675 124.3 60.08125 124.56563Q60.503124 124.83125 60.971874 124.83125Q61.628124 124.83125 62.1125 124.3Q62.596874 123.75313 62.596874 122.83125Q62.596874 121.94063 62.1125 121.425Q61.64375 120.90938 60.925 120.90938Q60.20625 120.90938 59.70625 121.425Q59.221874 121.94063 59.221874 122.76875ZM65.05 121.31563Q65.05 119.78438 65.3625 118.8625Q65.675 117.925 66.28438 117.425Q66.90938 116.925 67.84688 116.925Q68.53438 116.925 69.05 117.20625Q69.58125 117.4875 69.925 118.01875Q70.26875 118.53438 70.45625 119.28438Q70.64375 120.03438 70.64375 121.31563Q70.64375 122.83125 70.33125 123.75313Q70.03438 124.675 69.40938 125.19063Q68.8 125.69063 67.84688 125.69063Q66.6125 125.69063 65.89375 124.8Q65.05 123.7375 65.05 121.31563ZM66.12813 121.31563Q66.12813 123.425 66.62813 124.12813Q67.12813 124.83125 67.84688 124.83125Q68.58125 124.83125 69.06563 124.12813Q69.56563 123.425 69.56563 121.31563Q69.56563 119.19063 69.06563 118.50313Q68.58125 117.8 67.83125 117.8Q67.1125 117.8 66.675 118.40938Q66.12813 119.19063 66.12813 121.31563Z" fill-rule="nonzero"/><path fill="#000000" d="M59.675 61.260414Q59.01875 61.010414 58.690624 60.572914Q58.378124 60.11979 58.378124 59.510414Q58.378124 58.572914 59.05 57.93229Q59.7375 57.291664 60.846874 57.291664Q61.971874 57.291664 62.659374 57.947914Q63.346874 58.604164 63.346874 59.541664Q63.346874 60.135414 63.034374 60.572914Q62.721874 61.010414 62.08125 61.260414Q62.878124 61.510414 63.284374 62.08854Q63.690624 62.666664 63.690624 63.46354Q63.690624 64.55729 62.909374 65.30729Q62.14375 66.05729 60.8625 66.05729Q59.596874 66.05729 58.815624 65.30729Q58.034374 64.55729 58.034374 63.43229Q58.034374 62.58854 58.45625 62.02604Q58.89375 61.46354 59.675 61.260414ZM59.45625 59.46354Q59.45625 60.072914 59.846874 60.46354Q60.253124 60.854164 60.878124 60.854164Q61.4875 60.854164 61.878124 60.479164Q62.26875 60.08854 62.26875 59.52604Q62.26875 58.947914 61.8625 58.55729Q61.45625 58.15104 60.8625 58.15104Q60.253124 58.15104 59.846874 58.541664Q59.45625 58.93229 59.45625 59.46354ZM59.128124 63.43229Q59.128124 63.885414 59.33125 64.30729Q59.55 64.729164 59.971874 64.96354Q60.39375 65.197914 60.878124 65.197914Q61.628124 65.197914 62.1125 64.71354Q62.6125 64.229164 62.6125 63.479164Q62.6125 62.71354 62.1125 62.21354Q61.6125 61.71354 60.846874 61.71354Q60.096874 61.71354 59.6125 62.21354Q59.128124 62.697914 59.128124 63.43229ZM65.05 61.68229Q65.05 60.15104 65.3625 59.229164Q65.675 58.291664 66.28438 57.791664Q66.90938 57.291664 67.84688 57.291664Q68.53438 57.291664 69.05 57.572914Q69.58125 57.854164 69.925 58.385414Q70.26875 58.90104 70.45625 59.65104Q70.64375 60.40104 70.64375 61.68229Q70.64375 63.197914 70.33125 64.11979Q70.03438 65.041664 69.40938 65.55729Q68.8 66.05729 67.84688 66.05729Q66.6125 66.05729 65.89375 65.166664Q65.05 64.104164 65.05 61.68229ZM66.12813 61.68229Q66.12813 63.791664 66.62813 64.49479Q67.12813 65.197914 67.84688 65.197914Q68.58125 65.197914 69.06563 64.49479Q69.56563 63.791664 69.56563 61.68229Q69.56563 59.55729 69.06563 58.86979Q68.58125 58.166664 67.83125 58.166664Q67.1125 58.166664 66.675 58.77604Q66.12813 59.55729 66.12813 61.68229Z" fill-rule="nonzero"/><path fill="#000000" d="M105.22193 317.45L105.22193 308.85626L109.03443 308.85626Q110.19068 308.85626 110.78443 309.09064Q111.37818 309.325 111.73756 309.91876Q112.09693 310.4969 112.09693 311.2Q112.09693 312.1219 111.50318 312.7469Q110.90943 313.3719 109.67506 313.54376Q110.12818 313.7625 110.36256 313.96564Q110.86256 314.41876 111.30006 315.10626L112.80006 317.45L111.36256 317.45L110.23756 315.66876Q109.73756 314.8875 109.40943 314.48126Q109.09693 314.075 108.83131 313.91876Q108.58131 313.7469 108.31568 313.66876Q108.12818 313.6375 107.69068 313.6375L106.36256 313.6375L106.36256 317.45L105.22193 317.45ZM106.36256 312.65314L108.81568 312.65314Q109.58131 312.65314 110.01881 312.4969Q110.47193 312.325 110.69068 311.98126Q110.92506 311.6219 110.92506 311.2Q110.92506 310.59064 110.47193 310.2Q110.03443 309.8094 109.08131 309.8094L106.36256 309.8094L106.36256 312.65314ZM118.15943 317.45L118.15943 316.52814Q117.42506 317.59064 116.17506 317.59064Q115.62818 317.59064 115.14381 317.3875Q114.67506 317.16876 114.44068 316.85626Q114.20631 316.52814 114.11256 316.0594Q114.05006 315.7625 114.05006 315.075L114.05006 311.23126L115.11256 311.23126L115.11256 314.6844Q115.11256 315.4969 115.17506 315.79376Q115.26881 316.2 115.58131 316.45Q115.90943 316.6844 116.39381 316.6844Q116.86256 316.6844 117.26881 316.45Q117.69068 316.2 117.86256 315.77814Q118.05006 315.35626 118.05006 314.5594L118.05006 311.23126L119.09693 311.23126L119.09693 317.45L118.15943 317.45ZM122.05006 317.45L121.06568 317.45L121.06568 308.85626L122.12818 308.85626L122.12818 311.91876Q122.80006 311.09064 123.83131 311.09064Q124.40943 311.09064 124.90943 311.325Q125.42506 311.54376 125.75318 311.96564Q126.09693 312.3875 126.28443 312.98126Q126.47193 313.575 126.47193 314.2469Q126.47193 315.84064 125.67506 316.71564Q124.87818 317.59064 123.78443 317.59064Q122.67506 317.59064 122.05006 316.66876L122.05006 317.45ZM122.03443 314.29376Q122.03443 315.40314 122.34693 315.90314Q122.84693 316.71564 123.69068 316.71564Q124.37818 316.71564 124.87818 316.1219Q125.39381 315.52814 125.39381 314.325Q125.39381 313.10626 124.90943 312.52814Q124.42506 311.95 123.73756 311.95Q123.05006 311.95 122.53443 312.5594Q122.03443 313.15314 122.03443 314.29376ZM128.03442 319.84064L127.90943 318.85626Q128.25317 318.95 128.5188 318.95Q128.86255 318.95 129.06567 318.825Q129.28442 318.71564 129.42505 318.5125Q129.5188 318.34064 129.75317 317.71564Q129.7688 317.6375 129.84692 317.46564L127.47193 311.23126L128.61255 311.23126L129.90942 314.825Q130.15942 315.5125 130.36255 316.27814Q130.55005 315.54376 130.80005 314.85626L132.12817 311.23126L133.17505 311.23126L130.81567 317.5594Q130.42505 318.575 130.22192 318.96564Q129.94067 319.4969 129.56567 319.73126Q129.2063 319.98126 128.7063 319.98126Q128.40942 319.98126 128.03442 319.84064Z" fill-rule="nonzero"/><path fill="#000000" d="M177.69423 314.4344L178.81923 314.73126Q178.45985 316.1219 177.53798 316.85626Q176.6161 317.59064 175.27235 317.59064Q173.88173 317.59064 173.00673 317.02814Q172.13173 316.46564 171.6786 315.40314Q171.22548 314.325 171.22548 313.09064Q171.22548 311.7469 171.7411 310.7469Q172.25673 309.7469 173.19423 309.23126Q174.14735 308.71564 175.28798 308.71564Q176.56923 308.71564 177.44423 309.3719Q178.33485 310.02814 178.6786 311.21564L177.5536 311.48126Q177.25673 310.54376 176.6786 310.1219Q176.1161 309.6844 175.25673 309.6844Q174.27235 309.6844 173.60048 310.16876Q172.94423 310.6375 172.66298 311.4344Q172.39735 312.23126 172.39735 313.09064Q172.39735 314.1844 172.70985 314.9969Q173.03798 315.8094 173.70985 316.21564Q174.38173 316.6219 175.1786 316.6219Q176.13173 316.6219 176.78798 316.075Q177.45985 315.52814 177.69423 314.4344ZM180.2411 317.59064L180.7411 315.10626L179.75673 315.10626L179.75673 314.23126L180.9286 314.23126L181.35048 312.10626L179.75673 312.10626L179.75673 311.23126L181.53798 311.23126L182.03798 308.71564L182.91298 308.71564L182.41298 311.23126L184.25673 311.23126L184.77235 308.71564L185.64735 308.71564L185.14735 311.23126L186.14735 311.23126L186.14735 312.10626L184.95985 312.10626L184.52235 314.23126L186.14735 314.23126L186.14735 315.10626L184.35048 315.10626L183.83485 317.59064L182.95985 317.59064L183.45985 315.10626L181.63173 315.10626L181.1161 317.59064L180.2411 317.59064ZM181.8036 314.23126L183.64735 314.23126L184.08485 312.10626L182.2411 312.10626L181.8036 314.23126Z" fill-rule="nonzero"/><path fill="#000000" d="M234.54153 314.4344L235.66653 314.73126Q235.30716 316.1219 234.38528 316.85626Q233.46341 317.59064 232.11966 317.59064Q230.72903 317.59064 229.85403 317.02814Q228.97903 316.46564 228.52591 315.40314Q228.07278 314.325 228.07278 313.09064Q228.07278 311.7469 228.58841 310.7469Q229.10403 309.7469 230.04153 309.23126Q230.99466 308.71564 232.13528 308.71564Q233.41653 308.71564 234.29153 309.3719Q235.18216 310.02814 235.52591 311.21564L234.40091 311.48126Q234.10403 310.54376 233.52591 310.1219Q232.96341 309.6844 232.10403 309.6844Q231.11966 309.6844 230.44778 310.16876Q229.79153 310.6375 229.51028 311.4344Q229.24466 312.23126 229.24466 313.09064Q229.24466 314.1844 229.55716 314.9969Q229.88528 315.8094 230.55716 316.21564Q231.22903 316.6219 232.02591 316.6219Q232.97903 316.6219 233.63528 316.075Q234.30716 315.52814 234.54153 314.4344ZM239.47903 316.0594L239.47903 313.7L237.15091 313.7L237.15091 312.71564L239.47903 312.71564L239.47903 310.3875L240.47903 310.3875L240.47903 312.71564L242.82278 312.71564L242.82278 313.7L240.47903 313.7L240.47903 316.0594L239.47903 316.0594ZM246.47903 316.0594L246.47903 313.7L244.15091 313.7L244.15091 312.71564L246.47903 312.71564L246.47903 310.3875L247.47903 310.3875L247.47903 312.71564L249.82278 312.71564L249.82278 313.7L247.47903 313.7L247.47903 316.0594L246.47903 316.0594Z" fill-rule="nonzero"/><path fill="#000000" d="M296.27948 314.075L296.27948 313.075L299.90448 313.0594L299.90448 316.2469Q299.07635 316.91876 298.18573 317.2625Q297.2951 317.59064 296.3576 317.59064Q295.09198 317.59064 294.0451 317.0594Q293.01385 316.5125 292.4826 315.4969Q291.96698 314.46564 291.96698 313.2Q291.96698 311.9344 292.4826 310.85626Q293.01385 309.7625 293.99823 309.2469Q294.9826 308.71564 296.26385 308.71564Q297.20135 308.71564 297.95135 309.0125Q298.70135 309.3094 299.12323 309.85626Q299.56073 310.3875 299.77948 311.2625L298.76385 311.54376Q298.56073 310.8875 298.26385 310.5125Q297.9826 310.1375 297.45135 309.91876Q296.9201 309.6844 296.27948 309.6844Q295.49823 309.6844 294.9201 309.91876Q294.3576 310.15314 293.99823 310.54376Q293.65448 310.9344 293.46698 311.40314Q293.13885 312.2 293.13885 313.1219Q293.13885 314.27814 293.52948 315.0594Q293.93573 315.825 294.68573 316.2Q295.43573 316.575 296.2951 316.575Q297.02948 316.575 297.7326 316.29376Q298.43573 315.9969 298.7951 315.6844L298.7951 314.075L296.27948 314.075ZM300.7326 314.34064Q300.7326 312.60626 301.68573 311.77814Q302.4826 311.09064 303.63885 311.09064Q304.9201 311.09064 305.7326 311.9344Q306.56073 312.7625 306.56073 314.2469Q306.56073 315.45 306.20135 316.1375Q305.84198 316.825 305.13885 317.21564Q304.45135 317.59064 303.63885 317.59064Q302.34198 317.59064 301.52948 316.7625Q300.7326 315.91876 300.7326 314.34064ZM301.81073 314.34064Q301.81073 315.52814 302.32635 316.1219Q302.8576 316.71564 303.63885 316.71564Q304.43573 316.71564 304.95135 316.1219Q305.46698 315.52814 305.46698 314.3094Q305.46698 313.15314 304.93573 312.5594Q304.4201 311.96564 303.63885 311.96564Q302.8576 311.96564 302.32635 312.5594Q301.81073 313.1375 301.81073 314.34064Z" fill-rule="nonzero"/><path fill="#000000" d="M342.09552 317.45L342.09552 308.85626L345.34552 308.85626Q346.18927 308.85626 346.6424 308.9344Q347.28302 309.04376 347.7049 309.34064Q348.1424 309.6375 348.3924 310.16876Q348.65802 310.7 348.65802 311.34064Q348.65802 312.4344 347.9549 313.2Q347.2674 313.95 345.43927 313.95L343.23615 313.95L343.23615 317.45L342.09552 317.45ZM343.23615 312.95L345.4549 312.95Q346.56427 312.95 347.0174 312.54376Q347.48615 312.1219 347.48615 311.3719Q347.48615 310.84064 347.2049 310.46564Q346.93927 310.075 346.50177 309.95Q346.2049 309.8719 345.43927 309.8719L343.23615 309.8719L343.23615 312.95ZM349.92365 319.84064L349.79865 318.85626Q350.1424 318.95 350.40802 318.95Q350.75177 318.95 350.9549 318.825Q351.17365 318.71564 351.31427 318.5125Q351.40802 318.34064 351.6424 317.71564Q351.65802 317.6375 351.73615 317.46564L349.36115 311.23126L350.50177 311.23126L351.79865 314.825Q352.04865 315.5125 352.25177 316.27814Q352.43927 315.54376 352.68927 314.85626L354.0174 311.23126L355.06427 311.23126L352.7049 317.5594Q352.31427 318.575 352.11115 318.96564Q351.8299 319.4969 351.4549 319.73126Q351.09552 319.98126 350.59552 319.98126Q350.29865 319.98126 349.92365 319.84064ZM357.2674 316.5125L357.42365 317.4344Q356.97052 317.52814 356.62677 317.52814Q356.04865 317.52814 355.73615 317.35626Q355.42365 317.16876 355.28302 316.8719Q355.15802 316.575 355.15802 315.6219L355.15802 312.04376L354.3924 312.04376L354.3924 311.23126L355.15802 311.23126L355.15802 309.6844L356.2049 309.0594L356.2049 311.23126L357.2674 311.23126L357.2674 312.04376L356.2049 312.04376L356.2049 315.6844Q356.2049 316.1375 356.25177 316.2625Q356.31427 316.3875 356.43927 316.46564Q356.56427 316.54376 356.79865 316.54376Q356.98615 316.54376 357.2674 316.5125ZM357.97052 317.45L357.97052 308.85626L359.0174 308.85626L359.0174 311.9344Q359.75177 311.09064 360.87677 311.09064Q361.5799 311.09064 362.0799 311.3719Q362.59552 311.6375 362.81427 312.1219Q363.03302 312.59064 363.03302 313.5125L363.03302 317.45L361.98615 317.45L361.98615 313.5125Q361.98615 312.71564 361.6424 312.35626Q361.29865 311.9969 360.67365 311.9969Q360.2049 311.9969 359.78302 312.2469Q359.37677 312.48126 359.18927 312.90314Q359.0174 313.3094 359.0174 314.04376L359.0174 317.45L357.97052 317.45ZM364.5799 314.34064Q364.5799 312.60626 365.53302 311.77814Q366.3299 311.09064 367.48615 311.09064Q368.7674 311.09064 369.5799 311.9344Q370.40802 312.7625 370.40802 314.2469Q370.40802 315.45 370.04865 316.1375Q369.68927 316.825 368.98615 317.21564Q368.29865 317.59064 367.48615 317.59064Q366.18927 317.59064 365.37677 316.7625Q364.5799 315.91876 364.5799 314.34064ZM365.65802 314.34064Q365.65802 315.52814 366.17365 316.1219Q366.7049 316.71564 367.48615 316.71564Q368.28302 316.71564 368.79865 316.1219Q369.31427 315.52814 369.31427 314.3094Q369.31427 313.15314 368.78302 312.5594Q368.2674 311.96564 367.48615 311.96564Q366.7049 311.96564 366.17365 312.5594Q365.65802 313.1375 365.65802 314.34064ZM371.97052 317.45L371.97052 311.23126L372.90802 311.23126L372.90802 312.10626Q373.59552 311.09064 374.8924 311.09064Q375.4549 311.09064 375.92365 311.29376Q376.40802 311.4969 376.6424 311.825Q376.87677 312.15314 376.97052 312.59064Q377.0174 312.8875 377.0174 313.6219L377.0174 317.45L375.97052 317.45L375.97052 313.66876Q375.97052 313.0125 375.84552 312.7Q375.72052 312.3875 375.40802 312.2Q375.09552 311.9969 374.67365 311.9969Q374.00177 311.9969 373.50177 312.4344Q373.0174 312.85626 373.0174 314.04376L373.0174 317.45L371.97052 317.45Z" fill-rule="nonzero"/><path fill="#000000" d="M407.86472 315.0125L408.89597 314.8719Q408.92722 315.85626 409.25534 316.21564Q409.58347 316.575 410.17722 316.575Q410.5991 316.575 410.9116 316.3875Q411.2241 316.1844 411.33347 315.85626Q411.45847 315.5125 411.45847 314.77814L411.45847 308.85626L412.58347 308.85626L412.58347 314.71564Q412.58347 315.79376 412.31784 316.3875Q412.06784 316.98126 411.50534 317.29376Q410.94284 317.59064 410.17722 317.59064Q409.05222 317.59064 408.44284 316.95Q407.8491 316.29376 407.86472 315.0125ZM418.38034 316.6844Q417.7866 317.1844 417.23972 317.3875Q416.70847 317.59064 416.08347 317.59064Q415.05222 317.59064 414.50534 317.09064Q413.95847 316.59064 413.95847 315.8094Q413.95847 315.35626 414.1616 314.98126Q414.36472 314.59064 414.70847 314.3719Q415.05222 314.1375 415.4741 314.02814Q415.77097 313.9344 416.4116 313.85626Q417.67722 313.71564 418.2866 313.4969Q418.2866 313.27814 418.2866 313.23126Q418.2866 312.575 417.98972 312.3094Q417.58347 311.96564 416.7866 311.96564Q416.05222 311.96564 415.69284 312.23126Q415.33347 312.48126 415.1616 313.1375L414.13034 312.9969Q414.27097 312.34064 414.5991 311.9344Q414.92722 311.52814 415.5366 311.3094Q416.14597 311.09064 416.94284 311.09064Q417.73972 311.09064 418.23972 311.27814Q418.73972 311.46564 418.9741 311.7469Q419.20847 312.02814 419.30222 312.46564Q419.3491 312.73126 419.3491 313.4344L419.3491 314.84064Q419.3491 316.3094 419.4116 316.7Q419.48972 317.09064 419.69284 317.45L418.58347 317.45Q418.42722 317.1219 418.38034 316.6844ZM418.2866 314.325Q417.70847 314.5594 416.56784 314.73126Q415.9116 314.825 415.64597 314.95Q415.38034 315.0594 415.2241 315.27814Q415.08347 315.4969 415.08347 315.77814Q415.08347 316.2 415.39597 316.48126Q415.7241 316.7625 416.33347 316.7625Q416.94284 316.7625 417.4116 316.4969Q417.89597 316.23126 418.11472 315.7625Q418.2866 315.40314 418.2866 314.71564L418.2866 314.325ZM423.0366 317.45L420.67722 311.23126L421.7866 311.23126L423.13034 314.95Q423.33347 315.5594 423.52097 316.2Q423.6616 315.71564 423.9116 315.02814L425.30222 311.23126L426.38034 311.23126L424.02097 317.45L423.0366 317.45ZM430.38034 316.6844Q429.7866 317.1844 429.23972 317.3875Q428.70847 317.59064 428.08347 317.59064Q427.05222 317.59064 426.50534 317.09064Q425.95847 316.59064 425.95847 315.8094Q425.95847 315.35626 426.1616 314.98126Q426.36472 314.59064 426.70847 314.3719Q427.05222 314.1375 427.4741 314.02814Q427.77097 313.9344 428.4116 313.85626Q429.67722 313.71564 430.2866 313.4969Q430.2866 313.27814 430.2866 313.23126Q430.2866 312.575 429.98972 312.3094Q429.58347 311.96564 428.7866 311.96564Q428.05222 311.96564 427.69284 312.23126Q427.33347 312.48126 427.1616 313.1375L426.13034 312.9969Q426.27097 312.34064 426.5991 311.9344Q426.92722 311.52814 427.5366 311.3094Q428.14597 311.09064 428.94284 311.09064Q429.73972 311.09064 430.23972 311.27814Q430.73972 311.46564 430.9741 311.7469Q431.20847 312.02814 431.30222 312.46564Q431.3491 312.73126 431.3491 313.4344L431.3491 314.84064Q431.3491 316.3094 431.4116 316.7Q431.48972 317.09064 431.69284 317.45L430.58347 317.45Q430.42722 317.1219 430.38034 316.6844ZM430.2866 314.325Q429.70847 314.5594 428.56784 314.73126Q427.9116 314.825 427.64597 314.95Q427.38034 315.0594 427.2241 315.27814Q427.08347 315.4969 427.08347 315.77814Q427.08347 316.2 427.39597 316.48126Q427.7241 316.7625 428.33347 316.7625Q428.94284 316.7625 429.4116 316.4969Q429.89597 316.23126 430.11472 315.7625Q430.2866 315.40314 430.2866 314.71564L430.2866 314.325Z" fill-rule="nonzero"/><path fill="#000000" d="M468.30576 317.45L468.30576 308.85626L472.11826 308.85626Q473.2745 308.85626 473.86826 309.09064Q474.462 309.325 474.82138 309.91876Q475.18076 310.4969 475.18076 311.2Q475.18076 312.1219 474.587 312.7469Q473.99326 313.3719 472.75888 313.54376Q473.212 313.7625 473.44638 313.96564Q473.94638 314.41876 474.38388 315.10626L475.88388 317.45L474.44638 317.45L473.32138 315.66876Q472.82138 314.8875 472.49326 314.48126Q472.18076 314.075 471.91513 313.91876Q471.66513 313.7469 471.3995 313.66876Q471.212 313.6375 470.7745 313.6375L469.44638 313.6375L469.44638 317.45L468.30576 317.45ZM469.44638 312.65314L471.8995 312.65314Q472.66513 312.65314 473.10263 312.4969Q473.55576 312.325 473.7745 311.98126Q474.00888 311.6219 474.00888 311.2Q474.00888 310.59064 473.55576 310.2Q473.11826 309.8094 472.16513 309.8094L469.44638 309.8094L469.44638 312.65314ZM481.24326 317.45L481.24326 316.52814Q480.50888 317.59064 479.25888 317.59064Q478.712 317.59064 478.22763 317.3875Q477.75888 317.16876 477.5245 316.85626Q477.29013 316.52814 477.19638 316.0594Q477.13388 315.7625 477.13388 315.075L477.13388 311.23126L478.19638 311.23126L478.19638 314.6844Q478.19638 315.4969 478.25888 315.79376Q478.35263 316.2 478.66513 316.45Q478.99326 316.6844 479.47763 316.6844Q479.94638 316.6844 480.35263 316.45Q480.7745 316.2 480.94638 315.77814Q481.13388 315.35626 481.13388 314.5594L481.13388 311.23126L482.18076 311.23126L482.18076 317.45L481.24326 317.45ZM483.74326 315.59064L484.7745 315.4344Q484.86826 316.0594 485.25888 316.3875Q485.66513 316.71564 486.3995 316.71564Q487.11826 316.71564 487.462 316.4344Q487.82138 316.1375 487.82138 315.73126Q487.82138 315.3719 487.50888 315.16876Q487.29013 315.02814 486.43076 314.8094Q485.2745 314.5125 484.82138 314.3094Q484.38388 314.09064 484.1495 313.71564Q483.91513 313.34064 483.91513 312.8719Q483.91513 312.46564 484.10263 312.10626Q484.29013 311.7469 484.61826 311.5125Q484.86826 311.34064 485.29013 311.21564Q485.712 311.09064 486.212 311.09064Q486.93076 311.09064 487.47763 311.3094Q488.04013 311.5125 488.30576 311.8719Q488.57138 312.23126 488.66513 312.825L487.63388 312.96564Q487.57138 312.4969 487.22763 312.23126Q486.8995 311.95 486.2745 311.95Q485.55576 311.95 485.24326 312.2Q484.93076 312.4344 484.93076 312.7625Q484.93076 312.96564 485.05576 313.1219Q485.19638 313.29376 485.462 313.40314Q485.61826 313.46564 486.3995 313.66876Q487.5245 313.98126 487.962 314.16876Q488.3995 314.35626 488.6495 314.71564Q488.8995 315.075 488.8995 315.6219Q488.8995 316.15314 488.587 316.6219Q488.29013 317.075 487.712 317.34064Q487.13388 317.59064 486.3995 317.59064Q485.18076 317.59064 484.54013 317.09064Q483.91513 316.575 483.74326 315.59064ZM493.462 316.5125L493.61826 317.4344Q493.16513 317.52814 492.82138 317.52814Q492.24326 317.52814 491.93076 317.35626Q491.61826 317.16876 491.47763 316.8719Q491.35263 316.575 491.35263 315.6219L491.35263 312.04376L490.587 312.04376L490.587 311.23126L491.35263 311.23126L491.35263 309.6844L492.3995 309.0594L492.3995 311.23126L493.462 311.23126L493.462 312.04376L492.3995 312.04376L492.3995 315.6844Q492.3995 316.1375 492.44638 316.2625Q492.50888 316.3875 492.63388 316.46564Q492.75888 316.54376 492.99326 316.54376Q493.18076 316.54376 493.462 316.5125Z" fill-rule="nonzero"/><path fill="#000000" d="M525.0593 315.0125L526.0906 314.8719Q526.1218 315.85626 526.44995 316.21564Q526.7781 316.575 527.3718 316.575Q527.7937 316.575 528.1062 316.3875Q528.4187 316.1844 528.5281 315.85626Q528.6531 315.5125 528.6531 314.77814L528.6531 308.85626L529.7781 308.85626L529.7781 314.71564Q529.7781 315.79376 529.51245 316.3875Q529.26245 316.98126 528.69995 317.29376Q528.13745 317.59064 527.3718 317.59064Q526.2468 317.59064 525.63745 316.95Q525.0437 316.29376 525.0593 315.0125ZM531.26245 314.6844L532.32495 314.59064Q532.4031 315.2469 532.6843 315.65314Q532.9656 316.0594 533.5437 316.325Q534.13745 316.575 534.8718 316.575Q535.51245 316.575 536.01245 316.3875Q536.51245 316.1844 536.7468 315.85626Q536.9968 315.5125 536.9968 315.1219Q536.9968 314.71564 536.76245 314.41876Q536.5281 314.10626 535.9968 313.90314Q535.63745 313.7625 534.44995 313.48126Q533.2781 313.2 532.8093 312.95Q532.1843 312.6219 531.88745 312.15314Q531.5906 311.66876 531.5906 311.075Q531.5906 310.4344 531.94995 309.8719Q532.32495 309.29376 533.0281 309.0125Q533.7468 308.71564 534.6062 308.71564Q535.5593 308.71564 536.2937 309.02814Q537.0281 309.325 537.4187 309.9344Q537.8093 310.52814 537.8406 311.27814L536.7468 311.35626Q536.6531 310.54376 536.13745 310.1375Q535.63745 309.71564 534.6531 309.71564Q533.6218 309.71564 533.1531 310.09064Q532.6843 310.46564 532.6843 310.9969Q532.6843 311.46564 533.01245 311.7625Q533.3406 312.0594 534.7156 312.3719Q536.1062 312.6844 536.6218 312.91876Q537.3718 313.27814 537.7312 313.8094Q538.0906 314.325 538.0906 315.02814Q538.0906 315.71564 537.69995 316.325Q537.3093 316.91876 536.57495 317.2625Q535.8406 317.59064 534.9187 317.59064Q533.7468 317.59064 532.94995 317.2625Q532.1687 316.91876 531.7156 316.23126Q531.2781 315.54376 531.26245 314.6844ZM538.7156 317.59064L541.19995 308.71564L542.0437 308.71564L539.5593 317.59064L538.7156 317.59064ZM544.82495 317.45L544.82495 309.8719L541.9968 309.8719L541.9968 308.85626L548.8093 308.85626L548.8093 309.8719L545.9656 309.8719L545.9656 317.45L544.82495 317.45ZM549.26245 314.6844L550.32495 314.59064Q550.4031 315.2469 550.6843 315.65314Q550.9656 316.0594 551.5437 316.325Q552.13745 316.575 552.8718 316.575Q553.51245 316.575 554.01245 316.3875Q554.51245 316.1844 554.7468 315.85626Q554.9968 315.5125 554.9968 315.1219Q554.9968 314.71564 554.76245 314.41876Q554.5281 314.10626 553.9968 313.90314Q553.63745 313.7625 552.44995 313.48126Q551.2781 313.2 550.8093 312.95Q550.1843 312.6219 549.88745 312.15314Q549.5906 311.66876 549.5906 311.075Q549.5906 310.4344 549.94995 309.8719Q550.32495 309.29376 551.0281 309.0125Q551.7468 308.71564 552.6062 308.71564Q553.5593 308.71564 554.2937 309.02814Q555.0281 309.325 555.4187 309.9344Q555.8093 310.52814 555.8406 311.27814L554.7468 311.35626Q554.6531 310.54376 554.13745 310.1375Q553.63745 309.71564 552.6531 309.71564Q551.6218 309.71564 551.1531 310.09064Q550.6843 310.46564 550.6843 310.9969Q550.6843 311.46564 551.01245 311.7625Q551.3406 312.0594 552.7156 312.3719Q554.1062 312.6844 554.6218 312.91876Q555.3718 313.27814 555.7312 313.8094Q556.0906 314.325 556.0906 315.02814Q556.0906 315.71564 555.69995 316.325Q555.3093 316.91876 554.57495 317.2625Q553.8406 317.59064 552.9187 317.59064Q551.7468 317.59064 550.94995 317.2625Q550.1687 316.91876 549.7156 316.23126Q549.2781 315.54376 549.26245 314.6844Z" fill-rule="nonzero"/><path fill="#757575" d="M19.45625 32.95625L21.2375 32.8Q21.3625 33.8625 21.815624 34.55Q22.284374 35.2375 23.253124 35.675Q24.2375 36.096874 25.471874 36.096874Q26.55 36.096874 27.378124 35.784374Q28.20625 35.45625 28.6125 34.89375Q29.01875 34.33125 29.01875 33.659374Q29.01875 32.9875 28.628124 32.4875Q28.2375 31.9875 27.346874 31.64375Q26.76875 31.409374 24.784374 30.940624Q22.815624 30.471874 22.034374 30.05Q21.003124 29.51875 20.503124 28.721874Q20.003124 27.925 20.003124 26.940624Q20.003124 25.846874 20.6125 24.909374Q21.221874 23.971874 22.409374 23.4875Q23.596874 22.9875 25.034374 22.9875Q26.628124 22.9875 27.846874 23.503124Q29.065624 24.01875 29.70625 25.01875Q30.3625 26.003124 30.409374 27.26875L28.596874 27.409374Q28.45625 26.05 27.6125 25.3625Q26.76875 24.659374 25.1125 24.659374Q23.39375 24.659374 22.596874 25.3Q21.815624 25.925 21.815624 26.8Q21.815624 27.58125 22.378124 28.08125Q22.925 28.58125 25.2375 29.096874Q27.55 29.6125 28.409374 30.003124Q29.659374 30.58125 30.253124 31.471874Q30.846874 32.346874 30.846874 33.503124Q30.846874 34.64375 30.190624 35.659374Q29.534374 36.675 28.3 37.2375Q27.08125 37.8 25.55 37.8Q23.6125 37.8 22.3 37.2375Q20.9875 36.659374 20.2375 35.51875Q19.4875 34.378124 19.45625 32.95625ZM39.971874 34.20625L41.784374 34.440624Q41.3625 36.01875 40.190624 36.909374Q39.034374 37.784374 37.221874 37.784374Q34.95625 37.784374 33.6125 36.39375Q32.284374 34.9875 32.284374 32.45625Q32.284374 29.83125 33.628124 28.39375Q34.971874 26.940624 37.128124 26.940624Q39.20625 26.940624 40.51875 28.3625Q41.846874 29.76875 41.846874 32.346874Q41.846874 32.503124 41.83125 32.815624L34.096874 32.815624Q34.190624 34.51875 35.065624 35.425Q35.940624 36.33125 37.2375 36.33125Q38.20625 36.33125 38.878124 35.83125Q39.565624 35.315624 39.971874 34.20625ZM34.190624 31.3625L39.9875 31.3625Q39.878124 30.065624 39.33125 29.409374Q38.4875 28.39375 37.14375 28.39375Q35.940624 28.39375 35.1125 29.20625Q34.284374 30.003124 34.190624 31.3625ZM43.846874 37.55L43.846874 27.175L45.425 27.175L45.425 28.753124Q46.034374 27.64375 46.55 27.3Q47.065624 26.940624 47.675 26.940624Q48.565624 26.940624 49.4875 27.503124L48.878124 29.14375Q48.2375 28.753124 47.596874 28.753124Q47.01875 28.753124 46.55 29.1125Q46.096874 29.45625 45.89375 30.065624Q45.6125 31.003124 45.6125 32.1125L45.6125 37.55L43.846874 37.55ZM53.753124 37.55L49.8 27.175L51.659374 27.175L53.89375 33.39375Q54.253124 34.39375 54.55 35.471874Q54.784374 34.659374 55.20625 33.503124L57.503124 27.175L59.315624 27.175L55.39375 37.55L53.753124 37.55ZM66.97188 34.20625L68.78438 34.440624Q68.3625 36.01875 67.19063 36.909374Q66.03438 37.784374 64.22188 37.784374Q61.95625 37.784374 60.6125 36.39375Q59.284374 34.9875 59.284374 32.45625Q59.284374 29.83125 60.628124 28.39375Q61.971874 26.940624 64.12813 26.940624Q66.20625 26.940624 67.51875 28.3625Q68.84688 29.76875 68.84688 32.346874Q68.84688 32.503124 68.83125 32.815624L61.096874 32.815624Q61.190624 34.51875 62.065624 35.425Q62.940624 36.33125 64.2375 36.33125Q65.20625 36.33125 65.87813 35.83125Q66.56563 35.315624 66.97188 34.20625ZM61.190624 31.3625L66.9875 31.3625Q66.87813 30.065624 66.33125 29.409374Q65.4875 28.39375 64.14375 28.39375Q62.940624 28.39375 62.1125 29.20625Q61.284374 30.003124 61.190624 31.3625ZM70.84688 37.55L70.84688 27.175L72.425 27.175L72.425 28.753124Q73.03438 27.64375 73.55 27.3Q74.06563 26.940624 74.675 26.940624Q75.56563 26.940624 76.4875 27.503124L75.87813 29.14375Q75.2375 28.753124 74.59688 28.753124Q74.01875 28.753124 73.55 29.1125Q73.09688 29.45625 72.89375 30.065624Q72.6125 31.003124 72.6125 32.1125L72.6125 37.55L70.84688 37.55ZM77.15938 34.45625L78.90938 34.175Q79.05 35.221874 79.72188 35.784374Q80.39375 36.33125 81.59688 36.33125Q82.8 36.33125 83.37813 35.846874Q83.97188 35.346874 83.97188 34.690624Q83.97188 34.096874 83.45625 33.753124Q83.09688 33.51875 81.65938 33.159374Q79.72188 32.659374 78.97188 32.315624Q78.2375 31.95625 77.84688 31.33125Q77.45625 30.690624 77.45625 29.925Q77.45625 29.2375 77.76875 28.64375Q78.09688 28.05 78.64375 27.659374Q79.05 27.3625 79.75313 27.159374Q80.47188 26.940624 81.28438 26.940624Q82.50313 26.940624 83.425 27.3Q84.34688 27.64375 84.78438 28.253124Q85.22188 28.846874 85.39375 29.846874L83.675 30.08125Q83.55 29.284374 82.9875 28.846874Q82.425 28.39375 81.40938 28.39375Q80.19063 28.39375 79.675 28.8Q79.15938 29.190624 79.15938 29.721874Q79.15938 30.065624 79.37813 30.346874Q79.58125 30.628124 80.05 30.815624Q80.31563 30.909374 81.59688 31.253124Q83.47188 31.753124 84.20625 32.08125Q84.94063 32.39375 85.3625 33.003124Q85.78438 33.596874 85.78438 34.503124Q85.78438 35.378124 85.26875 36.159374Q84.75313 36.940624 83.78438 37.3625Q82.81563 37.784374 81.59688 37.784374Q79.58125 37.784374 78.51875 36.940624Q77.45625 36.096874 77.15938 34.45625ZM93.8625 41.51875L93.8625 27.175L95.47188 27.175L95.47188 28.51875Q96.03438 27.7375 96.7375 27.346874Q97.45625 26.940624 98.47188 26.940624Q99.8 26.940624 100.81563 27.628124Q101.83125 28.315624 102.34688 29.565624Q102.87813 30.8 102.87813 32.284374Q102.87813 33.878124 102.3 35.159374Q101.7375 36.425 100.64375 37.1125Q99.55 37.784374 98.34688 37.784374Q97.47188 37.784374 96.76875 37.409374Q96.08125 37.034374 95.62813 36.471874L95.62813 41.51875L93.8625 41.51875ZM95.45625 32.425Q95.45625 34.425 96.26875 35.378124Q97.08125 36.33125 98.2375 36.33125Q99.40938 36.33125 100.2375 35.346874Q101.08125 34.3625 101.08125 32.26875Q101.08125 30.3 100.25313 29.315624Q99.44063 28.315624 98.31563 28.315624Q97.19063 28.315624 96.31563 29.378124Q95.45625 30.425 95.45625 32.425ZM111.97188 34.20625L113.78438 34.440624Q113.3625 36.01875 112.19063 36.909374Q111.03438 37.784374 109.22188 37.784374Q106.95625 37.784374 105.6125 36.39375Q104.28438 34.9875 104.28438 32.45625Q104.28438 29.83125 105.62813 28.39375Q106.97188 26.940624 109.12813 26.940624Q111.20625 26.940624 112.51875 28.3625Q113.84688 29.76875 113.84688 32.346874Q113.84688 32.503124 113.83125 32.815624L106.09688 32.815624Q106.19063 34.51875 107.06563 35.425Q107.94063 36.33125 109.2375 36.33125Q110.20625 36.33125 110.87813 35.83125Q111.56563 35.315624 111.97188 34.20625ZM106.19063 31.3625L111.9875 31.3625Q111.87813 30.065624 111.33125 29.409374Q110.4875 28.39375 109.14375 28.39375Q107.94063 28.39375 107.1125 29.20625Q106.28438 30.003124 106.19063 31.3625ZM115.84688 37.55L115.84688 27.175L117.425 27.175L117.425 28.753124Q118.03438 27.64375 118.55 27.3Q119.06563 26.940624 119.675 26.940624Q120.56563 26.940624 121.4875 27.503124L120.87813 29.14375Q120.2375 28.753124 119.59688 28.753124Q119.01875 28.753124 118.55 29.1125Q118.09688 29.45625 117.89375 30.065624Q117.6125 31.003124 117.6125 32.1125L117.6125 37.55L115.84688 37.55ZM129.01875 37.55L129.01875 23.2375L130.90938 23.2375L130.90938 35.8625L137.95625 35.8625L137.95625 37.55L129.01875 37.55ZM146.64375 36.26875Q145.65938 37.096874 144.75313 37.440624Q143.84688 37.784374 142.81563 37.784374Q141.1125 37.784374 140.19063 36.95625Q139.26875 36.1125 139.26875 34.815624Q139.26875 34.05 139.6125 33.425Q139.97188 32.8 140.53438 32.425Q141.09688 32.034374 141.8 31.83125Q142.31563 31.70625 143.3625 31.565624Q145.4875 31.315624 146.4875 30.971874Q146.50313 30.6125 146.50313 30.503124Q146.50313 29.440624 146.00313 28.9875Q145.33125 28.39375 144.00313 28.39375Q142.75313 28.39375 142.15938 28.83125Q141.58125 29.26875 141.3 30.378124L139.58125 30.14375Q139.81563 29.034374 140.34688 28.3625Q140.87813 27.675 141.89375 27.315624Q142.90938 26.940624 144.25313 26.940624Q145.58125 26.940624 146.40938 27.253124Q147.2375 27.565624 147.62813 28.05Q148.01875 28.51875 148.175 29.2375Q148.26875 29.690624 148.26875 30.8625L148.26875 33.20625Q148.26875 35.659374 148.37813 36.315624Q148.4875 36.95625 148.83125 37.55L146.9875 37.55Q146.72188 37.003124 146.64375 36.26875ZM146.4875 32.346874Q145.53438 32.7375 143.6125 33.003124Q142.53438 33.159374 142.08125 33.3625Q141.64375 33.55 141.39375 33.925Q141.14375 34.3 141.14375 34.76875Q141.14375 35.471874 141.675 35.940624Q142.20625 36.409374 143.2375 36.409374Q144.25313 36.409374 145.03438 35.971874Q145.83125 35.51875 146.20625 34.753124Q146.4875 34.14375 146.4875 32.9875L146.4875 32.346874ZM150.8625 37.55L150.8625 27.175L152.45625 27.175L152.45625 28.659374Q153.59688 26.940624 155.75313 26.940624Q156.69063 26.940624 157.47188 27.284374Q158.26875 27.6125 158.65938 28.159374Q159.05 28.70625 159.20625 29.45625Q159.3 29.95625 159.3 31.175L159.3 37.55L157.53438 37.55L157.53438 31.2375Q157.53438 30.159374 157.33125 29.628124Q157.12813 29.096874 156.59688 28.784374Q156.08125 28.471874 155.37813 28.471874Q154.25313 28.471874 153.44063 29.190624Q152.62813 29.89375 152.62813 31.878124L152.62813 37.55L150.8625 37.55ZM160.55 38.409374L162.25313 38.659374Q162.3625 39.45625 162.84688 39.815624Q163.50313 40.3 164.64375 40.3Q165.8625 40.3 166.51875 39.815624Q167.19063 39.33125 167.425 38.45625Q167.56563 37.909374 167.55 36.190624Q166.39375 37.55 164.675 37.55Q162.53438 37.55 161.3625 36.003124Q160.19063 34.45625 160.19063 32.3Q160.19063 30.815624 160.72188 29.565624Q161.26875 28.315624 162.28438 27.628124Q163.31563 26.940624 164.69063 26.940624Q166.51875 26.940624 167.72188 28.425L167.72188 27.175L169.33125 27.175L169.33125 36.14375Q169.33125 38.565624 168.83125 39.565624Q168.34688 40.58125 167.26875 41.159374Q166.20625 41.753124 164.64375 41.753124Q162.8 41.753124 161.64375 40.925Q160.50313 40.096874 160.55 38.409374ZM162.00313 32.175Q162.00313 34.221874 162.81563 35.159374Q163.62813 36.096874 164.84688 36.096874Q166.05 36.096874 166.8625 35.159374Q167.69063 34.221874 167.69063 32.2375Q167.69063 30.33125 166.84688 29.3625Q166.00313 28.39375 164.81563 28.39375Q163.64375 28.39375 162.81563 29.346874Q162.00313 30.3 162.00313 32.175ZM178.65938 37.55L178.65938 36.01875Q177.45625 37.784374 175.37813 37.784374Q174.45625 37.784374 173.65938 37.440624Q172.8625 37.08125 172.47188 36.55Q172.09688 36.01875 171.94063 35.2375Q171.83125 34.721874 171.83125 33.596874L171.83125 27.175L173.58125 27.175L173.58125 32.925Q173.58125 34.3 173.69063 34.784374Q173.8625 35.471874 174.39375 35.878124Q174.94063 36.26875 175.72188 36.26875Q176.51875 36.26875 177.20625 35.8625Q177.90938 35.45625 178.19063 34.76875Q178.4875 34.065624 178.4875 32.7375L178.4875 27.175L180.2375 27.175L180.2375 37.55L178.65938 37.55ZM188.64375 36.26875Q187.65938 37.096874 186.75313 37.440624Q185.84688 37.784374 184.81563 37.784374Q183.1125 37.784374 182.19063 36.95625Q181.26875 36.1125 181.26875 34.815624Q181.26875 34.05 181.6125 33.425Q181.97188 32.8 182.53438 32.425Q183.09688 32.034374 183.8 31.83125Q184.31563 31.70625 185.3625 31.565624Q187.4875 31.315624 188.4875 30.971874Q188.50313 30.6125 188.50313 30.503124Q188.50313 29.440624 188.00313 28.9875Q187.33125 28.39375 186.00313 28.39375Q184.75313 28.39375 184.15938 28.83125Q183.58125 29.26875 183.3 30.378124L181.58125 30.14375Q181.81563 29.034374 182.34688 28.3625Q182.87813 27.675 183.89375 27.315624Q184.90938 26.940624 186.25313 26.940624Q187.58125 26.940624 188.40938 27.253124Q189.2375 27.565624 189.62813 28.05Q190.01875 28.51875 190.175 29.2375Q190.26875 29.690624 190.26875 30.8625L190.26875 33.20625Q190.26875 35.659374 190.37813 36.315624Q190.4875 36.95625 190.83125 37.55L188.9875 37.55Q188.72188 37.003124 188.64375 36.26875ZM188.4875 32.346874Q187.53438 32.7375 185.6125 33.003124Q184.53438 33.159374 184.08125 33.3625Q183.64375 33.55 183.39375 33.925Q183.14375 34.3 183.14375 34.76875Q183.14375 35.471874 183.675 35.940624Q184.20625 36.409374 185.2375 36.409374Q186.25313 36.409374 187.03438 35.971874Q187.83125 35.51875 188.20625 34.753124Q188.4875 34.14375 188.4875 32.9875L188.4875 32.346874ZM192.55 38.409374L194.25313 38.659374Q194.3625 39.45625 194.84688 39.815624Q195.50313 40.3 196.64375 40.3Q197.8625 40.3 198.51875 39.815624Q199.19063 39.33125 199.425 38.45625Q199.56563 37.909374 199.55 36.190624Q198.39375 37.55 196.675 37.55Q194.53438 37.55 193.3625 36.003124Q192.19063 34.45625 192.19063 32.3Q192.19063 30.815624 192.72188 29.565624Q193.26875 28.315624 194.28438 27.628124Q195.31563 26.940624 196.69063 26.940624Q198.51875 26.940624 199.72188 28.425L199.72188 27.175L201.33125 27.175L201.33125 36.14375Q201.33125 38.565624 200.83125 39.565624Q200.34688 40.58125 199.26875 41.159374Q198.20625 41.753124 196.64375 41.753124Q194.8 41.753124 193.64375 40.925Q192.50313 40.096874 192.55 38.409374ZM194.00313 32.175Q194.00313 34.221874 194.81563 35.159374Q195.62813 36.096874 196.84688 36.096874Q198.05 36.096874 198.8625 35.159374Q199.69063 34.221874 199.69063 32.2375Q199.69063 30.33125 198.84688 29.3625Q198.00313 28.39375 196.81563 28.39375Q195.64375 28.39375 194.81563 29.346874Q194.00313 30.3 194.00313 32.175ZM210.97188 34.20625L212.78438 34.440624Q212.3625 36.01875 211.19063 36.909374Q210.03438 37.784374 208.22188 37.784374Q205.95625 37.784374 204.6125 36.39375Q203.28438 34.9875 203.28438 32.45625Q203.28438 29.83125 204.62813 28.39375Q205.97188 26.940624 208.12813 26.940624Q210.20625 26.940624 211.51875 28.3625Q212.84688 29.76875 212.84688 32.346874Q212.84688 32.503124 212.83125 32.815624L205.09688 32.815624Q205.19063 34.51875 206.06563 35.425Q206.94063 36.33125 208.2375 36.33125Q209.20625 36.33125 209.87813 35.83125Q210.56563 35.315624 210.97188 34.20625ZM205.19063 31.3625L210.9875 31.3625Q210.87813 30.065624 210.33125 29.409374Q209.4875 28.39375 208.14375 28.39375Q206.94063 28.39375 206.1125 29.20625Q205.28438 30.003124 205.19063 31.3625Z" fill-rule="nonzero"/></svg>